<!DOCTYPE svg PUBLIC "-//W3C//DTD SVG 1.1//EN" "http://www.w3.org/Graphics/SVG/1.1/DTD/svg11.dtd">

<!-- Uploaded to: SVG Repo, www.svgrepo.com, Transformed by: SVG Repo Mixer Tools -->
<svg width="120px" height="120px" viewBox="0 0 36.00 36.00" xmlns="http://www.w3.org/2000/svg" xmlns:xlink="http://www.w3.org/1999/xlink" aria-hidden="true" role="img" class="iconify iconify--twemoji" preserveAspectRatio="xMidYMid meet" fill="#000000" stroke="#000000" stroke-width="0.00036">

<g id="SVGRepo_bgCarrier" stroke-width="0"/>

<g id="SVGRepo_tracerCarrier" stroke-linecap="round" stroke-linejoin="round"/>

<g id="SVGRepo_iconCarrier">

<path fill="#b71540" d="M10 5H4a4 4 0 0 0-4 4v6h10V5zm22 0H16v10h20V9a4 4 0 0 0-4-4zM10 31H4a4 4 0 0 1-4-4v-6h10v10zm22 0H16V21h20v6a4 4 0 0 1-4 4z"/>

<path fill="#002868" d="M14.5 5h-2.944l-.025 11.5H0v3h11.525L11.5 31h3V19.5H36v-3H14.5z"/>

<path fill="#EEE" d="M14.5 31H16V21h20v-1.5H14.5zM16 5h-1.5v11.5H36V15H16zm-4.5 0H10v10H0v1.5h11.5zM0 19.5V21h10v10h1.5V19.5z"/>

</g>

</svg>